# xmcd
#
# Track frame offsets:
#	150
#	25867
#	57295
#	83755
#	111335
#	137087
#	165812
#	189535
#	217342
#	240665
#	267835
#	292232
#
# Disc length: 4264 seconds
#
# Revision: 1
# Processed by: cddbd v1.5.1PL0 Copyright (c) Steve Scherf et al.
# Submitted via: audiograbber 1.83.01
#
DISCID=af10a60c
DTITLE=Various Artist - Jungle Renegades Two [CD2)
DYEAR=1995
DGENRE=Jungle
TTITLE0=B Jam - Funkula
TTITLE1=Essence of Aura - So This Is Love
TTITLE2=Lemon D - Jah Love (VIP Mix)
TTITLE3=Da Intelex - Like It (Remix)
TTITLE4=Bounty Killaz - Do It Now (DJ Pulse Remix)
TTITLE5=P-Funk - P-Funk Era
TTITLE6=ST Files - ST Files Part 1.1 (Remix)
TTITLE7=Adam F - Lighter Style
TTITLE8=Dillinger - Tear Down Da Whole Place
TTITLE9=Desired State - Here and Now
TTITLE10=Flex - Shack Out
TTITLE11=The Regulators - Hero's Welcome
EXTD=
EXTT0=
EXTT1=
EXTT2=
EXTT3=
EXTT4=
EXTT5=
EXTT6=
EXTT7=
EXTT8=
EXTT9=
EXTT10=
EXTT11=
PLAYORDER=
